<?xml version="1.0" encoding="UTF-8"?>
<svg version="1.1" xmlns="http://www.w3.org/2000/svg" width="1039" height="1024">
<path d="M0 0 C3.72793412 3.95386952 4.2807105 6.45966023 4.22417068 11.94511414 C3.94857513 15.76764746 2.89505293 19.30228843 1.80615234 22.96289062 C1.56505328 23.80461382 1.32395422 24.64633701 1.07554913 25.51356697 C0.27658447 28.29331418 -0.53739147 31.06842224 -1.3515625 33.84375 C-1.92039454 35.8112896 -2.48829267 37.77909942 -3.05531311 39.74716187 C-4.5675004 44.98595966 -6.09264089 50.22090183 -7.62044907 55.45516205 C-9.18656168 60.82876241 -10.74072457 66.20581591 -12.29614258 71.58251953 C-15.30087566 81.96178018 -18.31883071 92.33715003 -21.34197998 102.71105957 C-22.76042341 107.57850838 -24.17620345 112.44672573 -25.59033203 117.31542969 C-29.35561115 130.27783083 -33.13296138 143.23656652 -36.9375 156.1875 C-36.38925977 156.07437029 -35.84101954 155.96124058 -35.27616596 155.84468269 C-15.18227 151.71871282 4.9887784 148.04371353 25.1706202 144.37911749 C29.98873317 143.50373309 34.80637393 142.62575709 39.62406921 141.74807739 C48.77730885 140.08093223 57.93093302 138.41590892 67.08471411 136.75173962 C74.24923867 135.44917013 81.41361971 134.14581431 88.57788086 132.84179688 C89.57878443 132.65961727 90.579688 132.47743766 91.61092198 132.28973746 C96.6331169 131.37557111 101.65527712 130.46121442 106.67739677 129.54663467 C115.54744471 127.93141745 124.41761754 126.31691726 133.28873861 124.70760274 C150.70552662 121.54788753 168.12058765 118.38332448 185.51352131 115.09445071 C187.66978847 114.68723636 189.82637309 114.28175513 191.98310757 113.8770237 C192.67076736 113.74797374 193.35842714 113.61892379 194.06692511 113.48596323 C195.41813238 113.23246173 196.76935644 112.97904971 198.12059826 112.72573245 C202.45973221 111.91095557 206.79495213 111.07713675 211.12971497 110.23947144 C241.67355686 104.44249654 241.67355686 104.44249654 250.28515625 109.71875 C256.50188932 114.85609425 261.33013574 120.25904873 262.5390625 128.39453125 C262.99837848 139.55107463 259.60711252 146.69416457 254.0625 156.1875 C253.16859504 157.7632025 252.27674164 159.34007025 251.38671875 160.91796875 C249.4043964 164.41718972 247.40274264 167.90455373 245.390625 171.38671875 C241.77713557 177.65851896 238.25874536 183.98165131 234.75 190.3125 C233.8074939 192.01224976 233.8074939 192.01224976 232.84594727 193.74633789 C230.91728944 197.22625947 228.98985785 200.7068583 227.0625 204.1875 C219.41765075 217.98438279 211.75288556 231.76799095 203.97387695 245.48974609 C199.17477855 253.96510738 194.44485108 262.47816279 189.72094727 270.99560547 C183.77617618 281.71222941 177.79026111 292.40550966 171.79638672 303.09472656 C168.88310861 308.29120742 165.97293473 313.48942626 163.0625 318.6875 C159.57573215 324.91491207 156.08837556 331.14198933 152.59765625 337.3671875 C146.54189914 348.16953312 140.50641126 358.98263013 134.5 369.8125 C129.36871402 379.06343606 124.1913365 388.28655816 118.97412109 397.48925781 C114.17500644 405.96481882 109.4449394 414.47800355 104.72094727 422.99560547 C98.77617618 433.71222941 92.79026111 444.40550966 86.79638672 455.09472656 C83.8831086 460.29120745 80.97297173 465.48944696 78.0625 470.6875 C76.8958482 472.77084166 75.72918154 474.85417499 74.5625 476.9375 C73.985 477.96875 73.4075 479 72.8125 480.0625 C67.5625 489.4375 67.5625 489.4375 65.81274414 492.56201172 C64.64520421 494.64693936 63.47772381 496.73190034 62.31030273 498.81689453 C59.40748248 504.00110899 56.50365533 509.18475417 53.59765625 514.3671875 C47.54189914 525.16953312 41.50641126 535.98263013 35.5 546.8125 C30.36871402 556.06343606 25.1913365 565.28655816 19.97412109 574.48925781 C15.17500644 582.96481882 10.4449394 591.47800355 5.72094727 599.99560547 C-0.22382382 610.71222941 -6.20973889 621.40550966 -12.20361328 632.09472656 C-15.11689139 637.29120742 -18.02706527 642.48942626 -20.9375 647.6875 C-24.42426785 653.91491207 -27.91162444 660.14198933 -31.40234375 666.3671875 C-37.45810086 677.16953312 -43.49358874 687.98263013 -49.5 698.8125 C-54.63128598 708.06343606 -59.8086635 717.28655816 -65.02587891 726.48925781 C-69.82499356 734.96481882 -74.5550606 743.47800355 -79.27905273 751.99560547 C-85.22382382 762.71222941 -91.20973889 773.40550966 -97.20361328 784.09472656 C-100.11689139 789.29120742 -103.02706527 794.48942626 -105.9375 799.6875 C-109.42426785 805.91491207 -112.91162444 812.14198933 -116.40234375 818.3671875 C-122.45810086 829.16953312 -128.49358874 839.98263013 -134.5 850.8125 C-139.63128598 860.06343606 -144.8086635 869.28655816 -150.02587891 878.48925781 C-154.82499356 886.96481882 -159.5550606 895.47800355 -164.27905273 903.99560547 C-170.21906833 914.70365671 -176.20088244 925.38795835 -182.19042969 936.06835938 C-183.97659083 939.25729101 -185.75836255 942.44864097 -187.5390625 945.640625 C-190.44792325 950.85440483 -193.37031652 956.06042034 -196.29882812 961.26318359 C-197.88385163 964.09176099 -199.45074675 966.92977322 -201.015625 969.76953125 C-201.96809666 971.47171991 -202.92118484 973.1735638 -203.875 974.875 C-204.28709717 975.63474121 -204.69919434 976.39448242 -205.1237793 977.17724609 C-208.98063436 983.98655817 -214.11968512 989.26747088 -221.7109375 991.71484375 C-229.99293318 993.4729516 -237.63852658 992.50013912 -244.9375 988.1875 C-251.67361517 982.10854643 -255.85647673 974.54892887 -260.0625 966.625 C-261.37214378 964.20405271 -262.69034509 961.78779014 -264.0078125 959.37109375 C-264.33718811 958.76421722 -264.66656372 958.1573407 -265.00592041 957.53207397 C-268.19177749 951.67681827 -271.54846816 945.92726917 -274.9375 940.1875 C-279.89974975 931.75615981 -284.71116985 923.25325005 -289.4375 914.6875 C-294.73956842 905.07933937 -300.17710957 895.56570912 -305.73828125 886.10546875 C-309.89650268 879.01588852 -313.9411613 871.86943905 -317.9375 864.6875 C-322.51316642 856.46546975 -327.17337865 848.3017887 -331.9375 840.1875 C-337.25589275 831.12565741 -342.43621109 821.99557301 -347.55126953 812.81762695 C-351.925016 804.97653143 -356.35237167 797.16719078 -360.8125 789.375 C-361.14586365 788.79254517 -361.47922729 788.21009033 -361.82269287 787.60998535 C-363.51623714 784.65156468 -365.21057826 781.69360134 -366.90527344 778.73583984 C-369.92118289 773.47128943 -372.93010211 768.202745 -375.93951416 762.93447876 C-377.60521971 760.01865361 -379.27138314 757.10309013 -380.9375 754.1875 C-381.60416886 753.02083459 -382.27083552 751.85416792 -382.9375 750.6875 C-383.2675 750.11 -383.5975 749.5325 -383.9375 748.9375 C-386.93750002 743.68749997 -386.93750002 743.68749997 -387.93746948 741.93754578 C-388.60422911 740.77072151 -389.2709975 739.60390226 -389.93777466 738.43708801 C-391.60309088 735.52287354 -393.26825537 732.60857258 -394.93310547 729.6940918 C-397.94904606 724.41474336 -400.96612341 719.13606056 -403.98880005 713.86056519 C-405.6807784 710.90746984 -407.37187464 707.95387011 -409.0625 705 C-409.39505798 704.41899536 -409.72761597 703.83799072 -410.07025146 703.23937988 C-414.78419898 694.99964849 -419.44117995 686.72953158 -424.0625 678.4375 C-429.15964598 669.29304429 -434.38748746 660.23390908 -439.68798828 651.20605469 C-444.46673087 643.04631504 -449.08926686 634.80541893 -453.6875 626.54296875 C-457.68714452 619.37396305 -461.78098044 612.26657237 -465.9375 605.1875 C-471.31029449 596.03695939 -476.5302244 586.81081625 -481.68969727 577.53857422 C-485.66565635 570.41121733 -489.73913998 563.34810908 -493.875 556.3125 C-499.51649163 546.71184496 -504.94962614 537.00797748 -510.32958984 527.25878906 C-515.00993587 518.79998188 -519.83936334 510.4391336 -524.73828125 502.10546875 C-529.50443713 493.97938766 -534.10947811 485.76990211 -538.68994141 477.53808594 C-542.66586053 470.4109156 -546.73923218 463.34795222 -550.875 456.3125 C-556.51649163 446.71184496 -561.94962614 437.00797748 -567.32958984 427.25878906 C-572.00993587 418.79998188 -576.83936334 410.4391336 -581.73828125 402.10546875 C-585.89650268 395.01588852 -589.9411613 387.86943905 -593.9375 380.6875 C-598.51316642 372.46546975 -603.17337865 364.3017887 -607.9375 356.1875 C-613.25589275 347.12565741 -618.43621109 337.99557301 -623.55126953 328.81762695 C-627.925016 320.97653143 -632.35237167 313.16719078 -636.8125 305.375 C-637.14586365 304.79254517 -637.47922729 304.21009033 -637.82269287 303.60998535 C-639.51623714 300.65156468 -641.21057826 297.69360134 -642.90527344 294.73583984 C-645.92118289 289.47128943 -648.93010211 284.202745 -651.93951416 278.93447876 C-653.60521971 276.01865361 -655.27138314 273.10309013 -656.9375 270.1875 C-657.60416886 269.02083459 -658.27083552 267.85416792 -658.9375 266.6875 C-659.2675 266.11 -659.5975 265.5325 -659.9375 264.9375 C-662.93749999 259.68750002 -662.93749999 259.68750002 -663.93746948 257.93754578 C-664.60422911 256.77072151 -665.2709975 255.60390226 -665.93777466 254.43708801 C-667.60309088 251.52287354 -669.26825537 248.60857258 -670.93310547 245.6940918 C-673.94904606 240.41474336 -676.96612341 235.13606056 -679.98880005 229.86056519 C-681.6807784 226.90746984 -683.37187464 223.95387011 -685.0625 221 C-685.39505798 220.41899536 -685.72761597 219.83799072 -686.07025146 219.23937988 C-690.7841994 210.99964777 -695.44111505 202.72949593 -700.0625 194.4375 C-704.72566008 186.07303965 -709.47645789 177.76573051 -714.3125 169.5 C-714.89692871 168.50081543 -715.48135742 167.50163086 -716.08349609 166.47216797 C-718.15053563 162.94109871 -720.21851919 159.41059677 -722.29199219 155.88330078 C-723.42903045 153.9460076 -724.55931261 152.00495597 -725.6875 150.0625 C-726.28046875 149.04929688 -726.8734375 148.03609375 -727.484375 146.9921875 C-731.19153333 139.8369733 -732.04777052 132.89025313 -730.5078125 124.98046875 C-728.3467346 118.21709532 -723.49190151 112.45232307 -717.5 108.6875 C-703.33767034 103.02121876 -684.6056226 109.01692369 -670.34126902 111.65433002 C-666.74077565 112.31671575 -663.13729279 112.96246096 -659.53414917 113.61024475 C-653.27910783 114.73696701 -647.02591456 115.87349288 -640.77386475 117.01669312 C-631.68619136 118.67818227 -622.59557245 120.32306225 -613.50401759 121.96316469 C-609.22158549 122.73571378 -604.9392577 123.50884039 -600.6569519 124.28208923 C-599.79542263 124.43765118 -598.93389336 124.59321313 -598.04625714 124.75348908 C-591.82631793 125.87692278 -585.60689819 127.00320406 -579.38772583 128.13087463 C-542.86569027 134.75284374 -506.33172014 141.30760672 -469.79320908 147.8380127 C-459.4323544 149.68992018 -449.07216853 151.54548341 -438.71291339 153.40631849 C-431.59521162 154.68473342 -424.47698448 155.96019163 -417.35832608 157.23326892 C-413.23243688 157.97124105 -409.10681475 158.71063329 -404.98183823 159.45369148 C-401.19533018 160.13573601 -397.40812858 160.81378088 -393.62033463 161.48864627 C-392.24637265 161.73417827 -390.87267418 161.98119027 -389.49926758 162.22981 C-387.63376535 162.567295 -385.76720823 162.89893332 -383.90060425 163.23027039 C-382.86244505 163.4164326 -381.82428585 163.60259481 -380.75466728 163.79439831 C-378.10373074 164.16430451 -375.60941801 164.26264313 -372.9375 164.1875 C-372.85020126 162.61681763 -372.85020126 162.61681763 -372.76113892 161.0144043 C-372.21059479 151.12718078 -371.65192131 141.24044539 -371.0853672 131.35412598 C-370.79438333 126.27194693 -370.50622617 121.18964099 -370.22460938 116.10693359 C-369.95252726 111.1982186 -369.67291506 106.28998435 -369.38816452 101.38198853 C-369.28104965 99.51314348 -369.17660967 97.64414307 -369.07493973 95.7749939 C-368.93163598 93.14900884 -368.77867132 90.52374654 -368.62353516 87.8984375 C-368.58397202 87.13238693 -368.54440887 86.36633636 -368.50364685 85.57707214 C-368.11612494 79.29822458 -367.67070655 73.48157376 -363.76553345 68.31268311 C-360.50592347 65.86318306 -357.61145278 64.9413332 -353.68896484 64.18457031 C-352.95408529 64.02745197 -352.21920574 63.87033363 -351.46205711 63.70845413 C-348.95773299 63.18041818 -346.44849576 62.68278304 -343.9375 62.1875 C-342.08953231 61.81207669 -340.24165552 61.43620566 -338.39385986 61.05993652 C-331.90698319 59.75163697 -325.41067846 58.49324196 -318.9140625 57.234375 C-316.4021451 56.74498931 -313.89029094 56.25527894 -311.37849426 55.76527405 C-305.95826927 54.70828853 -300.53761769 53.65351603 -295.1166687 52.60025024 C-286.43004068 50.91238256 -277.74433326 49.21980842 -269.05883789 47.52612305 C-268.31598734 47.38126902 -267.57313679 47.23641498 -266.80777562 47.08717144 C-263.75638253 46.49214537 -260.70499358 45.89709809 -257.65361673 45.30198878 C-253.73135344 44.53703488 -249.80906289 43.77222127 -245.88671303 43.00771141 C-219.63538545 37.89102942 -193.38866821 32.75108835 -167.14453125 27.59765625 C-166.23055352 27.41818718 -165.31657579 27.23871812 -164.37490177 27.0538106 C-151.6029304 24.54584065 -138.83116361 22.03682975 -126.05947018 19.52744484 C-121.61844726 18.65487243 -117.17741907 17.78232684 -112.73638916 16.90979004 C-111.87006538 16.73958141 -111.0037416 16.56937278 -110.11116558 16.39400631 C-103.29941943 15.05570862 -96.48762842 13.71763934 -89.67581409 12.37968868 C-85.74426313 11.60744551 -81.81274049 10.83505887 -77.88129616 10.06227303 C-76.78296401 9.84639936 -76.78296401 9.84639936 -75.66244334 9.62616462 C-74.20602977 9.33987907 -72.74963106 9.05351792 -71.29324752 8.76707965 C-67.76461555 8.07334169 -64.23561797 7.38158507 -60.70573521 6.69423771 C-54.00033209 5.38718754 -47.29956083 4.06279292 -40.60766381 2.68801838 C-37.31708754 2.01365243 -34.02446429 1.34962885 -30.73155797 0.686746 C-29.16178249 0.36797228 -27.59296334 0.04444576 -26.02523315 -0.28423917 C-6.93982519 -4.2820198 -6.93982519 -4.2820198 0 0 Z " fill="#8C72FE" transform="translate(753.9375,5.8125)"/>
<path d="M0 0 C3.72793412 3.95386952 4.2807105 6.45966023 4.22417068 11.94511414 C3.94857514 15.76764728 2.89505374 19.30228881 1.80615234 22.96289062 C1.56504478 23.80463648 1.32393723 24.64638233 1.07552338 25.51363564 C0.27656103 28.29335799 -0.53740838 31.06844284 -1.3515625 33.84375 C-1.92025936 35.81092279 -2.48802013 37.7783664 -3.05490112 39.74606323 C-4.56697152 44.98470353 -6.09201364 50.21948182 -7.61984253 55.45354462 C-9.18806865 60.83362537 -10.74479763 66.21703028 -12.30273438 71.60009766 C-15.02936242 81.01518194 -17.76595211 90.42733175 -20.50742722 99.83810234 C-22.5743233 106.93498224 -24.63188123 114.03450941 -26.68270874 121.13604736 C-28.26427389 126.61250767 -29.85065404 132.08756805 -31.4375 137.5625 C-31.84878143 138.98453735 -31.84878143 138.98453735 -32.26837158 140.43530273 C-33.01935601 143.02815832 -33.77451036 145.6197567 -34.53125 148.2109375 C-34.73628143 148.9211203 -34.94131287 149.6313031 -35.15255737 150.36300659 C-36.34764663 154.4337076 -37.74223486 158.38074238 -39.25808716 162.34249878 C-40.15366328 164.77450911 -40.83561599 167.23292397 -41.48046875 169.7421875 C-41.74545166 170.75579346 -42.01043457 171.76939941 -42.28344727 172.8137207 C-42.56115967 173.88581787 -42.83887207 174.95791504 -43.125 176.0625 C-45.55510608 185.27411473 -48.16302447 194.40549034 -51 203.5 C-53.52293413 211.61235391 -56.04340702 219.72349371 -58.4375 227.875 C-58.82047241 229.13920776 -58.82047241 229.13920776 -59.21118164 230.42895508 C-60.92397028 236.33136791 -61.92380864 241.48812899 -59.75 247.4375 C-57.67006673 250.59326082 -56.44300868 251.78529653 -52.9375 253.1875 C-46.41062818 253.55859305 -40.55383664 252.4897347 -34.1875 251.125 C-31.95078176 250.66149947 -29.71378532 250.19934013 -27.4765625 249.73828125 C-26.26774414 249.48771973 -25.05892578 249.2371582 -23.81347656 248.97900391 C-15.98284769 247.37992991 -8.13177793 245.88346049 -0.28341675 244.37423706 C8.43597617 242.69659553 17.14252233 240.97506329 25.83203125 239.1484375 C28.20707665 238.65434356 30.58230738 238.16114945 32.95758057 237.66815186 C34.46738855 237.35159023 35.97618043 237.03013677 37.48382568 236.70343018 C56.01356077 232.68921835 56.01356077 232.68921835 63 237 C65.97281136 240.15298175 66.933186 241.89818854 67.36863708 246.23980713 C66.96917456 251.39094839 65.16486421 254.97188192 62.85180664 259.53808594 C62.37023889 260.51626156 61.88867113 261.49443718 61.39251041 262.50225449 C59.95857903 265.40561299 58.51117124 268.30186586 57.05911112 271.19618797 C55.62713956 274.05738641 54.20657581 276.92420425 52.78539878 279.79077601 C47.51494832 290.42103111 42.2100335 301.03396413 36.90093493 311.64495564 C34.41004441 316.62416829 31.92113916 321.60437326 29.43190002 326.58441162 C25.25689773 334.93622441 21.08022977 343.28720259 16.90258789 351.63769531 C12.09851594 361.24039277 7.29733416 370.84453107 2.49764007 380.44941735 C-1.65408669 388.75743302 -5.80739595 397.06465618 -9.96198982 405.37123847 C-12.43001246 410.30573878 -14.89752072 415.2404943 -17.36358833 420.17597198 C-19.68227702 424.81627378 -22.00297484 429.45556562 -24.32511902 434.0941391 C-25.16821009 435.77901812 -26.01064932 437.46422353 -26.85232353 439.14981079 C-30.97449165 447.40408597 -35.14967028 455.62111886 -39.48028564 463.76811218 C-46.69593359 477.37912834 -53.49737982 491.20353079 -60.36785114 504.99077284 C-62.43102824 509.12982417 -64.49666938 513.26764553 -66.5620575 517.40559387 C-70.13054664 524.55561262 -73.69772135 531.70628582 -77.26415062 538.85733223 C-82.90488283 550.16717094 -88.5503475 561.47464419 -94.1966095 572.78172302 C-96.1334508 576.66052805 -98.0702714 580.53934341 -100.00709248 584.41815853 C-100.49090177 585.38706315 -100.97471106 586.35596777 -101.47318124 587.35423313 C-106.96250322 598.34756792 -112.45110316 609.34126311 -117.93920898 620.33520508 C-118.69057897 621.84036716 -118.69057897 621.84036716 -119.45712814 623.37593656 C-127.59006067 639.66838747 -135.71851363 655.96307 -143.84570488 672.25838543 C-152.20792192 689.02457507 -160.57627572 705.787692 -168.94998151 722.54814667 C-174.10606009 732.86888544 -179.2571643 743.19207612 -184.4018446 753.51850157 C-187.92479541 760.58870693 -191.45359609 767.65597236 -194.98698684 774.72096599 C-197.02335536 778.79312635 -199.05710891 782.86653736 -201.08382416 786.94351196 C-202.94149282 790.68029569 -204.80661335 794.4132621 -206.67755453 798.14341735 C-207.35043499 799.48818725 -208.02064156 800.83429941 -208.68778529 802.18192453 C-218.76100709 822.51853975 -218.76100709 822.51853975 -225.9375 827.1875 C-230.19678901 828.10784888 -234.27145459 828.14038209 -238.109375 825.9453125 C-241.08098955 823.4771533 -242.69837459 821.90487622 -243.9375 818.1875 C-244.43554515 811.46936393 -242.88381048 805.18237612 -241.49414062 798.63500977 C-241.23389099 797.38150726 -240.97364136 796.12800476 -240.70550537 794.83651733 C-239.99215303 791.40122685 -239.27026567 787.96777944 -238.54693794 784.53457761 C-237.7820414 780.89620727 -237.0254175 777.25611733 -236.26794434 773.61619568 C-234.82378691 766.68244767 -233.37280649 759.75014704 -231.91912222 752.81839079 C-229.19416988 739.82321404 -226.48370264 726.82500593 -223.77196503 713.82706642 C-223.15376866 710.86411333 -222.53516199 707.90124634 -221.91620636 704.93845177 C-217.39228962 683.28191105 -212.96132721 661.60904496 -208.67628479 639.90386963 C-203.99400252 616.35020167 -203.99400252 616.35020167 -201.17114258 604.96166992 C-198.2331177 594.07589875 -198.2331177 594.07589875 -200.1875 583.25 C-202.5230079 580.49743712 -204.6076916 579.40835979 -208.171875 578.81640625 C-216.30299261 578.60176495 -223.31214941 580.88649562 -230.89208984 583.49072266 C-236.06868219 585.25415003 -241.3051892 586.83921706 -246.53222656 588.44580078 C-248.29584007 588.98963532 -250.05800984 589.53815769 -251.81933594 590.08935547 C-254.97944364 591.07409861 -258.14525646 592.03848072 -261.3125 593 C-262.31087891 593.31437012 -263.30925781 593.62874023 -264.33789062 593.95263672 C-270.47118175 595.7899716 -276.51466588 597.21609198 -282.9375 596.1875 C-286.32793361 593.64467479 -288.37788594 591.10037008 -289.9375 587.1875 C-290.38164462 577.30033144 -287.68631841 567.2873755 -285.58731079 557.68753052 C-284.55581737 552.96742307 -283.55309285 548.24117316 -282.546875 543.515625 C-282.33452713 542.521642 -282.12217926 541.527659 -281.90339661 540.5035553 C-279.40663724 528.7748742 -277.08166641 517.01238164 -274.75 505.25 C-271.65186935 489.6493277 -268.48998148 474.06994275 -265.09375 458.53125 C-264.31160916 454.93714971 -263.54160908 451.34114433 -262.80078125 447.73828125 C-262.64134033 446.96395752 -262.48189941 446.18963379 -262.31762695 445.3918457 C-261.51616796 440.74420711 -261.26381844 436.7369676 -263.1875 432.3125 C-265.44602713 429.57000277 -267.47259557 428.40075325 -271.00366211 427.88671875 C-278.74012178 427.84684437 -285.99361605 429.45556289 -293.5 431.1875 C-294.90562521 431.5037811 -296.31139015 431.81944178 -297.71728516 432.13452148 C-314.44681485 435.90796928 -331.09677958 440.0319945 -347.75048828 444.12451172 C-351.28937412 444.99015531 -354.83156197 445.84071311 -358.375 446.6875 C-359.40415527 446.94281494 -360.43331055 447.19812988 -361.49365234 447.46118164 C-376.79101585 451.07782289 -376.79101585 451.07782289 -382.14819336 447.859375 C-385.14141675 445.4600608 -386.70836652 443.87490045 -387.9375 440.1875 C-388.47949512 430.70979822 -387.67826937 421.09218746 -387.19287109 411.62060547 C-387.06521483 409.11576966 -386.94436184 406.6106747 -386.82421875 404.10546875 C-386.35113425 394.54441176 -385.71137285 385.00721881 -384.94921875 375.46484375 C-384.01770562 363.75001221 -383.35493475 352.03579896 -382.79052734 340.29818726 C-382.49002469 334.08364391 -382.17413058 327.8698854 -381.85546875 321.65625 C-381.82101025 320.98373388 -381.78655174 320.31121777 -381.75104904 319.61832237 C-380.74382361 300.03176078 -379.59087953 280.45340146 -378.4375 260.875 C-378.38330273 259.95356327 -378.32910545 259.03212654 -378.27326584 258.08276749 C-376.90299972 234.79391955 -375.5296628 211.50526307 -373.83789062 188.23706055 C-373.20604852 179.39644186 -372.78254698 170.56525584 -372.48046875 161.70703125 C-371.96357462 146.63706182 -371.14234201 131.58971638 -370.26293945 116.53735352 C-370.03954846 112.70659632 -369.82604267 108.87534985 -369.61455631 105.04391956 C-369.44726202 102.04348802 -369.27309421 99.04348365 -369.09704399 96.04355431 C-369.01520562 94.62964853 -368.93584824 93.2155966 -368.85917854 91.80140114 C-367.86248417 73.53095719 -367.86248417 73.53095719 -363.81254578 68.6006012 C-360.54226755 65.85577105 -357.77160317 64.9722309 -353.68896484 64.18457031 C-352.95408529 64.02745197 -352.21920574 63.87033363 -351.46205711 63.70845413 C-348.95773299 63.18041818 -346.44849576 62.68278304 -343.9375 62.1875 C-342.08953231 61.81207669 -340.24165552 61.43620566 -338.39385986 61.05993652 C-331.90698319 59.75163697 -325.41067846 58.49324196 -318.9140625 57.234375 C-316.4021451 56.74498931 -313.89029094 56.25527894 -311.37849426 55.76527405 C-305.95826927 54.70828853 -300.53761769 53.65351603 -295.1166687 52.60025024 C-286.43004068 50.91238256 -277.74433326 49.21980842 -269.05883789 47.52612305 C-268.31598734 47.38126902 -267.57313679 47.23641498 -266.80777562 47.08717144 C-263.75638253 46.49214537 -260.70499358 45.89709809 -257.65361673 45.30198878 C-253.73135344 44.53703488 -249.80906289 43.77222127 -245.88671303 43.00771141 C-219.63538545 37.89102942 -193.38866821 32.75108835 -167.14453125 27.59765625 C-166.23055352 27.41818718 -165.31657579 27.23871812 -164.37490177 27.0538106 C-151.6029304 24.54584065 -138.83116361 22.03682975 -126.05947018 19.52744484 C-121.61844726 18.65487243 -117.17741907 17.78232684 -112.73638916 16.90979004 C-111.87006538 16.73958141 -111.0037416 16.56937278 -110.11116558 16.39400631 C-103.29941943 15.05570862 -96.48762842 13.71763934 -89.67581409 12.37968868 C-85.74426313 11.60744551 -81.81274049 10.83505887 -77.88129616 10.06227303 C-76.78296401 9.84639936 -76.78296401 9.84639936 -75.66244334 9.62616462 C-74.20602977 9.33987907 -72.74963106 9.05351792 -71.29324752 8.76707965 C-67.76461555 8.07334169 -64.23561797 7.38158507 -60.70573521 6.69423771 C-54.00033209 5.38718754 -47.29956083 4.06279292 -40.60766381 2.68801838 C-37.31708754 2.01365243 -34.02446429 1.34962885 -30.73155797 0.686746 C-29.16178249 0.36797228 -27.59296334 0.04444576 -26.02523315 -0.28423917 C-6.93982519 -4.2820198 -6.93982519 -4.2820198 0 0 Z " fill="#FEC923" transform="translate(753.9375,5.8125)"/>
</svg>
